<?xml version="1.0" standalone="no"?>
<!DOCTYPE svg PUBLIC "-//W3C//DTD SVG 20010904//EN"
 "http://www.w3.org/TR/2001/REC-SVG-20010904/DTD/svg10.dtd">
<svg version="1.0" xmlns="http://www.w3.org/2000/svg"
 width="330.000000pt" height="330.000000pt" viewBox="0 0 330.000000 330.000000"
 preserveAspectRatio="xMidYMid meet">
<metadata>
Created by potrace 1.14, written by Peter Selinger 2001-2017
</metadata>
<g transform="translate(0.000000,330.000000) scale(0.100000,-0.100000)"
fill="#000000" stroke="none">
<path d="M1555 3094 c-333 -34 -646 -174 -879 -395 -282 -267 -414 -593 -456
-1133 -5 -71 -10 -264 -10 -430 1 -305 15 -934 22 -941 2 -2 230 -9 508 -16
1209 -30 1574 53 1965 446 213 215 352 487 401 785 12 72 15 138 11 270 -3 96
-9 185 -12 198 l-7 22 -659 0 -659 0 0 -260 0 -260 385 0 c273 0 385 -3 385
-11 0 -6 -15 -46 -33 -88 -135 -310 -396 -512 -712 -550 -186 -23 -582 -34
-807 -22 -118 6 -222 13 -231 16 -22 9 -32 190 -32 560 1 329 14 444 70 625
100 318 311 531 622 627 81 25 102 27 258 27 157 0 177 -2 260 -28 168 -51
281 -128 417 -283 l63 -73 293 0 c191 0 292 4 292 10 0 18 -101 213 -143 275
-102 153 -239 289 -392 392 -147 99 -367 187 -540 217 -91 16 -307 27 -380 20z"/>
<path d="M1420 1645 l0 -265 150 0 150 0 0 265 0 265 -150 0 -150 0 0 -265z"/>
</g>
</svg>
